<!-- <svg xmlns="http://www.w3.org/2000/svg" fill="none" viewBox="0 0 500 500"><g clip-path="url(#a)"><circle cx="250" cy="250" r="250" fill="#fff"/><path fill="#18B6F6" d="m367.87 418.45-61.17-61.18-.94.13v-.67L175.7 227.53l32.05-31.13L188.9 87.73 99.56 199.09c-15.22 15.42-18.03 40.51-7.08 59.03l55.83 93.11a46.82 46.82 0 0 0 40.73 22.81l27.65-.27 151.18 44.68Z"/><path fill="#AC7EF4" d="m401.25 196.94-12.29-22.81-6.41-11.67-2.54-4.56-.26.26-33.66-58.63a47.07 47.07 0 0 0-41.27-23.75l-29.51.8-88.01.28a47.07 47.07 0 0 0-40.33 23.34L93.4 207l95.76-119.54L314.7 226.19l-22.3 22.67 13.35 108.54.13-.26v.26h-.26l.26.27 10.42 10.2 50.62 49.78c2.13 2 5.6-.4 4.13-2.96l-31.25-61.85 54.5-101.3 1.73-2c.67-.81 1.33-1.62 1.87-2.42a46.8 46.8 0 0 0 3.34-50.18Z"/><path fill="#fff" d="M315.1 225.65 189.18 87.6l17.9 108.14L175 227l130.5 130.27-11.75-108.14 21.37-23.48Z"/></g><defs><clipPath id="a"><path fill="#fff" d="M0 0h500v500H0z"/></clipPath></defs></svg> -->

<svg version="1.1" id="Pokéball" xmlns="http://www.w3.org/2000/svg" xmlns:xlink="http://www.w3.org/1999/xlink" x="0px" y="0px"
	 viewBox="0 0 595.3 594.1" style="enable-background:new 0 0 595.3 594.1;" xml:space="preserve">
<style type="text/css">
	.st0{fill:#FFFFFF;}
	.st1{fill:#DFDFDF;}
	.st2{fill:#FF1C1C;}
	.st3{fill:#DF1818;}
</style>
<g id="Pokéball_1_">
	<g id="Colours">
		<path id="Down" class="st0" d="M297.6,380.9c-40.4,0-74.1-28.6-82.1-66.6H81.1c9.5,110.5,102.2,197.2,215.1,197.2
			s205.7-86.7,215.1-197.2H379.7C371.7,352.4,338,380.9,297.6,380.9z"/>
		<path id="Shadow_Down" class="st1" d="M345.6,505.9c89.6-21,157.7-97.7,165.7-191.6h-53C453,399.5,408.3,471.7,345.6,505.9z"/>
		<path id="Center" class="st0" d="M347.1,297L347.1,297C347,297,347,297,347.1,297c-0.1-6.1-1.2-11.9-3.2-17.3
			c-7-18.8-25.1-32.1-46.3-32.1s-39.3,13.4-46.3,32.1c-2,5.4-3.1,11.2-3.1,17.3c0,0,0,0,0,0h0.1c0,0,0,0,0,0
			c0,6.1,1.1,11.9,3.1,17.3c7,18.8,25.1,32.1,46.3,32.1c21.2,0,39.3-13.4,46.3-32.1C346,309,347.1,303.1,347.1,297
			C347.1,297,347.1,297,347.1,297z"/>
		<path id="Up" class="st2" d="M297.7,213.2c40.4,0,74.1,28.6,82.1,66.6h134.4C504.7,169.2,412,82.5,299,82.5S93.4,169.2,83.9,279.7
			h131.7C223.6,241.7,257.3,213.2,297.7,213.2z"/>
		<path id="Shadow_Up" class="st3" d="M458.3,279.7h55.8c-8.2-95.5-78.6-173.3-170.5-192.6C407.4,120.8,452.9,193.7,458.3,279.7z"/>
	</g>
	<path id="Line" d="M299,82.5c113,0,205.7,86.7,215.1,197.2H379.7c-8-38-41.7-66.6-82.1-66.6c-40.4,0-74.1,28.6-82.1,66.6H83.9
		C93.4,169.2,186.1,82.5,299,82.5z M343.9,279.7c2,5.4,3.1,11.2,3.1,17.3c0,0,0,0,0,0h0.1c0,0,0,0,0,0c0,6.1-1.1,11.9-3.1,17.3
		c-7,18.8-25.1,32.1-46.3,32.1c-21.2,0-39.3-13.4-46.3-32.1c-2-5.4-3.1-11.2-3.1-17.3c0,0,0,0,0,0h-0.1c0,0,0,0,0,0
		c0-6.1,1.1-11.9,3.1-17.3c7-18.8,25.1-32.1,46.3-32.1S336.9,261,343.9,279.7z M296.2,511.6c-113,0-205.7-86.7-215.1-197.2h134.4
		c8,38,41.7,66.6,82.1,66.6s74.1-28.6,82.1-66.6h131.7C501.9,424.8,409.2,511.6,296.2,511.6z M297.6,41.3
		C156.4,41.3,41.9,155.8,41.9,297s114.5,255.7,255.7,255.7S553.4,438.3,553.4,297S438.9,41.3,297.6,41.3z"/>
</g>
</svg>